<svg width="300" height="51" viewBox="0 0 300 51" fill="none" xmlns="http://www.w3.org/2000/svg">
<g clip-path="url(#clip0_5_62)">
<path d="M79.3697 18.164C79.3697 19.652 78.9617 20.984 78.1457 22.16C77.3297 23.312 76.2137 24.272 74.7977 25.04C75.7097 25.664 76.4297 26.432 76.9577 27.344C77.5097 28.232 77.7857 29.216 77.7857 30.296C77.7857 31.592 77.3897 32.876 76.5977 34.148C75.8297 35.396 74.7977 36.512 73.5017 37.496C72.2057 38.456 70.7297 39.236 69.0737 39.836C67.4177 40.436 65.7257 40.736 63.9977 40.736C62.1257 40.736 60.4817 40.376 59.0657 39.656C57.6737 38.96 56.5817 37.964 55.7897 36.668C56.0297 35.948 56.3417 35.06 56.7257 34.004C57.1337 32.924 57.5777 31.796 58.0577 30.62C58.5377 29.42 59.0177 28.232 59.4977 27.056C60.0017 25.88 60.4697 24.824 60.9017 23.888C61.8137 21.848 62.6297 20.156 63.3497 18.812C64.0697 17.468 64.7297 16.4 65.3297 15.608C64.0097 16.016 62.8097 16.484 61.7297 17.012C60.6497 17.516 59.8577 18.008 59.3537 18.488C59.1377 18.344 58.9097 18.128 58.6697 17.84C58.4537 17.552 58.2377 17.24 58.0217 16.904C57.8297 16.544 57.6617 16.184 57.5177 15.824C57.3977 15.464 57.3257 15.14 57.3017 14.852C57.9257 14.42 58.7297 14.012 59.7137 13.628C60.7217 13.22 61.8137 12.872 62.9897 12.584C64.1657 12.296 65.3657 12.068 66.5897 11.9C67.8377 11.732 69.0257 11.648 70.1537 11.648C73.0337 11.648 75.2897 12.224 76.9217 13.376C78.5537 14.528 79.3697 16.124 79.3697 18.164ZM65.6537 26.768C65.1977 26.552 64.7777 26.228 64.3937 25.796C63.8417 27.02 63.3137 28.22 62.8097 29.396C62.3297 30.572 61.8977 31.664 61.5137 32.672C61.1297 33.68 60.8177 34.556 60.5777 35.3C60.3377 36.044 60.2057 36.584 60.1817 36.92C60.5177 37.112 60.9137 37.256 61.3697 37.352C61.8497 37.448 62.4377 37.496 63.1337 37.496C64.7657 37.496 66.3257 37.268 67.8137 36.812C69.3017 36.356 70.6097 35.744 71.7377 34.976C72.8657 34.184 73.7657 33.284 74.4377 32.276C75.1097 31.268 75.4457 30.212 75.4457 29.108C75.4457 27.524 74.7617 26.384 73.3937 25.688C71.5217 26.456 69.4097 26.84 67.0577 26.84C66.7217 26.84 66.4577 26.84 66.2657 26.84C66.0977 26.84 65.8937 26.816 65.6537 26.768ZM72.6377 14.276C72.1337 14.276 71.5937 14.312 71.0177 14.384C70.4657 14.432 69.8777 14.516 69.2537 14.636C69.3497 14.732 69.4217 14.84 69.4697 14.96C69.5417 15.056 69.6017 15.164 69.6497 15.284C69.4337 15.572 69.1697 15.992 68.8577 16.544C68.5457 17.096 68.1977 17.744 67.8137 18.488C67.4297 19.208 67.0217 20.012 66.5897 20.9C66.1817 21.788 65.7617 22.7 65.3297 23.636C65.7377 23.54 66.2297 23.468 66.8057 23.42C67.4057 23.348 67.9937 23.312 68.5697 23.312C68.8817 23.312 69.1817 23.324 69.4697 23.348C69.7817 23.372 70.0817 23.408 70.3697 23.456C71.5217 23.264 72.5537 22.988 73.4657 22.628C74.4017 22.244 75.2057 21.812 75.8777 21.332C76.5497 20.828 77.0657 20.276 77.4257 19.676C77.7857 19.076 77.9657 18.44 77.9657 17.768C77.9657 16.616 77.5097 15.752 76.5977 15.176C75.6857 14.576 74.3657 14.276 72.6377 14.276ZM92.7167 23.456C92.9567 23.456 93.2327 23.504 93.5447 23.6C93.8807 23.672 94.1807 23.78 94.4447 23.924C94.7087 24.044 94.9247 24.176 95.0927 24.32C95.2847 24.464 95.3807 24.596 95.3807 24.716C94.9007 25.724 94.4567 26.744 94.0487 27.776C93.6407 28.784 93.2927 29.756 93.0047 30.692C92.7167 31.628 92.4887 32.504 92.3207 33.32C92.1767 34.136 92.1047 34.844 92.1047 35.444C92.1047 36.116 92.1767 36.68 92.3207 37.136C92.4647 37.568 92.7047 37.88 93.0407 38.072C92.7527 38.264 92.3807 38.42 91.9247 38.54C91.4687 38.66 91.0607 38.72 90.7007 38.72C89.4047 38.72 88.7567 37.832 88.7567 36.056C88.7567 34.688 89.2127 32.816 90.1247 30.44C89.6447 31.544 89.0927 32.588 88.4687 33.572C87.8447 34.532 87.2087 35.384 86.5607 36.128C85.9127 36.872 85.2527 37.484 84.5807 37.964C83.9327 38.42 83.3327 38.696 82.7807 38.792C81.8927 38.744 81.1727 38.324 80.6207 37.532C80.0687 36.716 79.7927 35.684 79.7927 34.436C79.7927 33.092 80.0807 31.676 80.6567 30.188C81.2327 28.7 81.9647 27.32 82.8527 26.048C83.7647 24.776 84.7487 23.72 85.8047 22.88C86.8607 22.016 87.8807 21.56 88.8647 21.512C89.1047 21.584 89.3687 21.728 89.6567 21.944C89.9687 22.16 90.2567 22.412 90.5207 22.7C90.8087 22.988 91.0487 23.288 91.2407 23.6C91.4327 23.888 91.5407 24.14 91.5647 24.356C90.6047 24.5 89.6087 24.968 88.5767 25.76C87.5687 26.552 86.6447 27.512 85.8047 28.64C84.9887 29.744 84.3167 30.932 83.7887 32.204C83.2607 33.476 82.9967 34.664 82.9967 35.768C82.9967 36.224 83.1647 36.512 83.5007 36.632C84.1967 36.488 85.0007 35.9 85.9127 34.868C86.8247 33.812 87.9287 32.192 89.2247 30.008C89.4647 29.576 89.7287 29.096 90.0167 28.568C90.3287 28.04 90.6407 27.488 90.9527 26.912C91.2647 26.336 91.5647 25.76 91.8527 25.184C92.1647 24.584 92.4527 24.008 92.7167 23.456ZM96.3428 37.28C96.4628 36.584 96.6668 35.672 96.9548 34.544C97.2668 33.392 97.6268 32.18 98.0348 30.908C98.4428 29.612 98.8748 28.316 99.3308 27.02C99.7868 25.724 100.231 24.56 100.663 23.528C100.975 22.784 101.251 22.208 101.491 21.8C101.731 21.368 101.995 21.008 102.283 20.72C102.619 20.768 102.967 20.852 103.327 20.972C103.687 21.092 104.035 21.236 104.371 21.404C104.707 21.572 105.007 21.752 105.271 21.944C105.535 22.112 105.739 22.28 105.883 22.448C105.235 23.216 104.659 24.092 104.155 25.076C103.675 26.06 103.183 27.32 102.679 28.856C103.975 27.704 105.115 26.6 106.099 25.544C107.107 24.488 108.043 23.312 108.907 22.016C109.051 21.896 109.303 21.836 109.663 21.836C109.999 21.836 110.323 21.896 110.635 22.016C110.947 22.112 111.163 22.256 111.283 22.448C110.851 23.6 110.635 24.74 110.635 25.868C110.635 26.924 110.791 27.716 111.103 28.244C111.079 28.388 110.911 28.664 110.599 29.072C110.311 29.48 109.987 29.864 109.627 30.224C108.979 29.888 108.403 29.432 107.899 28.856C107.395 28.256 107.023 27.608 106.783 26.912C105.655 27.704 104.695 28.484 103.903 29.252C103.111 29.996 102.427 30.836 101.851 31.772C101.299 32.684 100.819 33.74 100.411 34.94C100.027 36.14 99.6548 37.568 99.2948 39.224C99.0788 39.2 98.8148 39.116 98.5028 38.972C98.2148 38.852 97.9148 38.696 97.6028 38.504C97.3148 38.312 97.0508 38.108 96.8108 37.892C96.5708 37.676 96.4148 37.472 96.3428 37.28ZM115.038 38.252C116.142 37.508 117.222 36.56 118.278 35.408C119.334 34.232 120.294 32.972 121.158 31.628C122.022 30.26 122.754 28.844 123.354 27.38C123.954 25.916 124.362 24.512 124.578 23.168C124.578 22.88 124.422 22.688 124.11 22.592C123.774 22.592 123.306 22.892 122.706 23.492C122.13 24.068 121.482 24.812 120.762 25.724C120.066 26.636 119.346 27.656 118.602 28.784C117.882 29.912 117.222 31.04 116.622 32.168C116.022 33.272 115.506 34.316 115.074 35.3C114.666 36.26 114.438 37.04 114.39 37.64C114.15 37.64 113.946 37.4 113.778 36.92C113.73 36.8 113.646 36.68 113.526 36.56C113.406 36.416 113.214 36.248 112.95 36.056C112.83 35.96 112.71 35.852 112.59 35.732C112.47 35.588 112.386 35.468 112.338 35.372C112.242 35.18 112.194 34.868 112.194 34.436C112.194 33.02 112.374 31.424 112.734 29.648C113.094 27.872 113.562 26.06 114.138 24.212C114.738 22.364 115.434 20.552 116.226 18.776C117.018 16.976 117.834 15.332 118.674 13.844C119.538 12.356 120.402 11.096 121.266 10.064C122.13 9.032 122.946 8.348 123.714 8.012C123.954 8.084 124.242 8.204 124.578 8.372C124.914 8.54 125.25 8.732 125.586 8.948C125.922 9.164 126.234 9.38 126.522 9.596C126.834 9.812 127.062 10.004 127.206 10.172C124.566 12.308 122.274 15.056 120.33 18.416C118.41 21.752 116.838 25.7 115.614 30.26C116.286 29.012 117.042 27.812 117.882 26.66C118.722 25.484 119.55 24.452 120.366 23.564C121.206 22.676 121.998 21.968 122.742 21.44C123.51 20.912 124.146 20.648 124.65 20.648C125.034 20.744 125.406 20.912 125.766 21.152C126.126 21.392 126.45 21.692 126.738 22.052C127.026 22.388 127.266 22.76 127.458 23.168C127.65 23.552 127.77 23.96 127.818 24.392C127.794 25.4 127.614 26.48 127.278 27.632C126.966 28.76 126.534 29.876 125.982 30.98C125.454 32.084 124.842 33.14 124.146 34.148C123.474 35.156 122.754 36.044 121.986 36.812C121.242 37.556 120.486 38.156 119.718 38.612C118.974 39.068 118.266 39.296 117.594 39.296C117.306 39.296 117.006 39.26 116.694 39.188C116.406 39.14 116.13 39.056 115.866 38.936C115.626 38.84 115.422 38.732 115.254 38.612C115.11 38.492 115.038 38.372 115.038 38.252ZM141.595 23.096C141.499 24.584 141.235 25.868 140.803 26.948C140.371 28.004 139.747 28.94 138.931 29.756C138.139 30.548 137.167 31.268 136.015 31.916C134.863 32.564 133.519 33.188 131.983 33.788C131.983 33.932 131.971 34.088 131.947 34.256C131.947 34.4 131.947 34.556 131.947 34.724C131.947 35.036 131.971 35.36 132.019 35.696C132.067 36.032 132.151 36.344 132.271 36.632C132.391 36.92 132.559 37.16 132.775 37.352C132.991 37.52 133.267 37.604 133.603 37.604C134.251 37.604 134.887 37.46 135.511 37.172C136.135 36.884 136.723 36.536 137.275 36.128C137.851 35.696 138.379 35.24 138.859 34.76C139.363 34.256 139.807 33.8 140.191 33.392C140.431 33.608 140.635 33.812 140.803 34.004C139.723 35.444 138.535 36.644 137.239 37.604C135.967 38.54 134.755 39.14 133.603 39.404C131.947 39.212 130.651 38.612 129.715 37.604C128.803 36.572 128.347 35.336 128.347 33.896C128.347 32.912 128.479 31.916 128.743 30.908C129.031 29.876 129.415 28.892 129.895 27.956C130.399 26.996 130.975 26.096 131.623 25.256C132.295 24.416 133.003 23.684 133.747 23.06C134.515 22.436 135.295 21.944 136.087 21.584C136.903 21.224 137.707 21.044 138.499 21.044C139.603 21.188 140.635 21.872 141.595 23.096ZM139.111 24.284C138.463 24.38 137.791 24.644 137.095 25.076C136.399 25.508 135.739 26.084 135.115 26.804C134.515 27.524 133.963 28.364 133.459 29.324C132.955 30.284 132.559 31.316 132.271 32.42C134.191 31.46 135.787 30.284 137.059 28.892C138.331 27.476 139.015 25.94 139.111 24.284ZM142.398 37.28C142.518 36.584 142.722 35.672 143.01 34.544C143.322 33.392 143.682 32.18 144.09 30.908C144.498 29.612 144.93 28.316 145.386 27.02C145.842 25.724 146.286 24.56 146.718 23.528C147.03 22.784 147.306 22.208 147.546 21.8C147.786 21.368 148.05 21.008 148.338 20.72C148.674 20.768 149.022 20.852 149.382 20.972C149.742 21.092 150.09 21.236 150.426 21.404C150.762 21.572 151.062 21.752 151.326 21.944C151.59 22.112 151.794 22.28 151.938 22.448C151.29 23.216 150.714 24.092 150.21 25.076C149.73 26.06 149.238 27.32 148.734 28.856C150.03 27.704 151.17 26.6 152.154 25.544C153.162 24.488 154.098 23.312 154.962 22.016C155.106 21.896 155.358 21.836 155.718 21.836C156.054 21.836 156.378 21.896 156.69 22.016C157.002 22.112 157.218 22.256 157.338 22.448C156.906 23.6 156.69 24.74 156.69 25.868C156.69 26.924 156.846 27.716 157.158 28.244C157.134 28.388 156.966 28.664 156.654 29.072C156.366 29.48 156.042 29.864 155.682 30.224C155.034 29.888 154.458 29.432 153.954 28.856C153.45 28.256 153.078 27.608 152.838 26.912C151.71 27.704 150.75 28.484 149.958 29.252C149.166 29.996 148.482 30.836 147.906 31.772C147.354 32.684 146.874 33.74 146.466 34.94C146.082 36.14 145.71 37.568 145.35 39.224C145.134 39.2 144.87 39.116 144.558 38.972C144.27 38.852 143.97 38.696 143.658 38.504C143.37 38.312 143.106 38.108 142.866 37.892C142.626 37.676 142.47 37.472 142.398 37.28ZM157.817 35.588C157.817 35.372 157.829 35.108 157.853 34.796C157.901 34.46 157.973 34.028 158.069 33.5C158.165 32.948 158.285 32.288 158.429 31.52C158.597 30.752 158.801 29.828 159.041 28.748C159.089 28.508 159.197 28.124 159.365 27.596C159.533 27.068 159.749 26.516 160.013 25.94C160.301 25.34 160.637 24.764 161.021 24.212C161.429 23.66 161.909 23.252 162.461 22.988C162.869 23.084 163.409 23.336 164.081 23.744C164.753 24.128 165.329 24.668 165.809 25.364C165.257 25.988 164.789 26.612 164.405 27.236C164.045 27.86 163.709 28.508 163.397 29.18C163.109 29.852 162.833 30.548 162.569 31.268C162.329 31.988 162.053 32.744 161.741 33.536C161.477 34.208 161.237 34.904 161.021 35.624C160.805 36.32 160.685 36.932 160.661 37.46C160.661 37.892 160.649 38.192 160.625 38.36C160.625 38.552 160.565 38.648 160.445 38.648C160.349 38.648 160.157 38.588 159.869 38.468C159.581 38.348 159.281 38.168 158.969 37.928C158.681 37.664 158.417 37.34 158.177 36.956C157.937 36.572 157.817 36.116 157.817 35.588ZM164.693 19.964C164.693 19.82 164.729 19.604 164.801 19.316C164.681 19.196 164.573 19.016 164.477 18.776C164.405 18.536 164.369 18.32 164.369 18.128C164.369 17.912 164.393 17.624 164.441 17.264C164.513 16.88 164.597 16.472 164.693 16.04C164.789 15.608 164.909 15.164 165.053 14.708C165.197 14.228 165.341 13.796 165.485 13.412C165.773 13.412 166.121 13.496 166.529 13.664C166.961 13.808 167.393 14.012 167.825 14.276C168.257 14.516 168.653 14.792 169.013 15.104C169.373 15.392 169.649 15.668 169.841 15.932C169.577 16.196 169.229 16.568 168.797 17.048C168.365 17.504 167.945 17.996 167.537 18.524C167.129 19.028 166.757 19.508 166.421 19.964C166.085 20.42 165.869 20.744 165.773 20.936C165.485 20.888 165.233 20.768 165.017 20.576C164.801 20.36 164.693 20.156 164.693 19.964ZM178.709 23.456C178.949 23.456 179.225 23.504 179.537 23.6C179.873 23.672 180.173 23.78 180.437 23.924C180.701 24.044 180.917 24.176 181.085 24.32C181.277 24.464 181.373 24.596 181.373 24.716C180.893 25.724 180.449 26.744 180.041 27.776C179.633 28.784 179.285 29.756 178.997 30.692C178.709 31.628 178.481 32.504 178.313 33.32C178.169 34.136 178.097 34.844 178.097 35.444C178.097 36.116 178.169 36.68 178.313 37.136C178.457 37.568 178.697 37.88 179.033 38.072C178.745 38.264 178.373 38.42 177.917 38.54C177.461 38.66 177.053 38.72 176.693 38.72C175.397 38.72 174.749 37.832 174.749 36.056C174.749 34.688 175.205 32.816 176.117 30.44C175.637 31.544 175.085 32.588 174.461 33.572C173.837 34.532 173.201 35.384 172.553 36.128C171.905 36.872 171.245 37.484 170.573 37.964C169.925 38.42 169.325 38.696 168.773 38.792C167.885 38.744 167.165 38.324 166.613 37.532C166.061 36.716 165.785 35.684 165.785 34.436C165.785 33.092 166.073 31.676 166.649 30.188C167.225 28.7 167.957 27.32 168.845 26.048C169.757 24.776 170.741 23.72 171.797 22.88C172.853 22.016 173.873 21.56 174.857 21.512C175.097 21.584 175.361 21.728 175.649 21.944C175.961 22.16 176.249 22.412 176.513 22.7C176.801 22.988 177.041 23.288 177.233 23.6C177.425 23.888 177.533 24.14 177.557 24.356C176.597 24.5 175.601 24.968 174.569 25.76C173.561 26.552 172.637 27.512 171.797 28.64C170.981 29.744 170.309 30.932 169.781 32.204C169.253 33.476 168.989 34.664 168.989 35.768C168.989 36.224 169.157 36.512 169.493 36.632C170.189 36.488 170.993 35.9 171.905 34.868C172.817 33.812 173.921 32.192 175.217 30.008C175.457 29.576 175.721 29.096 176.009 28.568C176.321 28.04 176.633 27.488 176.945 26.912C177.257 26.336 177.557 25.76 177.845 25.184C178.157 24.584 178.445 24.008 178.709 23.456ZM216.725 18.164C216.725 19.652 216.317 20.984 215.501 22.16C214.685 23.312 213.569 24.272 212.153 25.04C213.065 25.664 213.785 26.432 214.313 27.344C214.865 28.232 215.141 29.216 215.141 30.296C215.141 31.592 214.745 32.876 213.953 34.148C213.185 35.396 212.153 36.512 210.857 37.496C209.561 38.456 208.085 39.236 206.429 39.836C204.773 40.436 203.081 40.736 201.353 40.736C199.481 40.736 197.837 40.376 196.421 39.656C195.029 38.96 193.937 37.964 193.145 36.668C193.385 35.948 193.697 35.06 194.081 34.004C194.489 32.924 194.933 31.796 195.413 30.62C195.893 29.42 196.373 28.232 196.853 27.056C197.357 25.88 197.825 24.824 198.257 23.888C199.169 21.848 199.985 20.156 200.705 18.812C201.425 17.468 202.085 16.4 202.685 15.608C201.365 16.016 200.165 16.484 199.085 17.012C198.005 17.516 197.213 18.008 196.709 18.488C196.493 18.344 196.265 18.128 196.025 17.84C195.809 17.552 195.593 17.24 195.377 16.904C195.185 16.544 195.017 16.184 194.873 15.824C194.753 15.464 194.681 15.14 194.657 14.852C195.281 14.42 196.085 14.012 197.069 13.628C198.077 13.22 199.169 12.872 200.345 12.584C201.521 12.296 202.721 12.068 203.945 11.9C205.193 11.732 206.381 11.648 207.509 11.648C210.389 11.648 212.645 12.224 214.277 13.376C215.909 14.528 216.725 16.124 216.725 18.164ZM203.009 26.768C202.553 26.552 202.133 26.228 201.749 25.796C201.197 27.02 200.669 28.22 200.165 29.396C199.685 30.572 199.253 31.664 198.869 32.672C198.485 33.68 198.173 34.556 197.933 35.3C197.693 36.044 197.561 36.584 197.537 36.92C197.873 37.112 198.269 37.256 198.725 37.352C199.205 37.448 199.793 37.496 200.489 37.496C202.121 37.496 203.681 37.268 205.169 36.812C206.657 36.356 207.965 35.744 209.093 34.976C210.221 34.184 211.121 33.284 211.793 32.276C212.465 31.268 212.801 30.212 212.801 29.108C212.801 27.524 212.117 26.384 210.749 25.688C208.877 26.456 206.765 26.84 204.413 26.84C204.077 26.84 203.813 26.84 203.621 26.84C203.453 26.84 203.249 26.816 203.009 26.768ZM209.993 14.276C209.489 14.276 208.949 14.312 208.373 14.384C207.821 14.432 207.233 14.516 206.609 14.636C206.705 14.732 206.777 14.84 206.825 14.96C206.897 15.056 206.957 15.164 207.005 15.284C206.789 15.572 206.525 15.992 206.213 16.544C205.901 17.096 205.553 17.744 205.169 18.488C204.785 19.208 204.377 20.012 203.945 20.9C203.537 21.788 203.117 22.7 202.685 23.636C203.093 23.54 203.585 23.468 204.161 23.42C204.761 23.348 205.349 23.312 205.925 23.312C206.237 23.312 206.537 23.324 206.825 23.348C207.137 23.372 207.437 23.408 207.725 23.456C208.877 23.264 209.909 22.988 210.821 22.628C211.757 22.244 212.561 21.812 213.233 21.332C213.905 20.828 214.421 20.276 214.781 19.676C215.141 19.076 215.321 18.44 215.321 17.768C215.321 16.616 214.865 15.752 213.953 15.176C213.041 14.576 211.721 14.276 209.993 14.276ZM230.977 32.42C230.425 34.172 229.873 35.768 229.321 37.208C228.769 38.648 228.181 39.968 227.557 41.168C226.933 42.392 226.261 43.508 225.541 44.516C224.821 45.548 224.029 46.52 223.165 47.432C222.061 48.584 220.921 49.46 219.745 50.06C218.569 50.684 217.393 50.996 216.217 50.996C215.617 50.996 215.017 50.924 214.417 50.78C213.841 50.66 213.301 50.48 212.797 50.24C212.269 50.024 211.813 49.76 211.429 49.448C211.021 49.16 210.733 48.848 210.565 48.512C210.565 48.224 210.733 47.972 211.069 47.756C211.357 48.02 211.597 48.224 211.789 48.368C211.981 48.512 212.173 48.632 212.365 48.728C212.533 48.824 212.725 48.884 212.941 48.908C213.133 48.932 213.361 48.944 213.625 48.944C214.993 48.944 216.325 48.536 217.621 47.72C218.941 46.928 220.177 45.788 221.329 44.3C222.505 42.836 223.573 41.048 224.533 38.936C225.493 36.848 226.309 34.508 226.981 31.916C226.669 32.396 226.285 32.984 225.829 33.68C225.373 34.376 224.869 35.072 224.317 35.768C223.765 36.44 223.189 37.052 222.589 37.604C222.013 38.156 221.449 38.528 220.897 38.72C220.513 38.696 220.105 38.612 219.673 38.468C219.265 38.348 218.869 38.168 218.485 37.928C218.125 37.688 217.801 37.4 217.513 37.064C217.225 36.728 217.033 36.344 216.937 35.912C216.937 35.216 216.961 34.664 217.009 34.256C217.057 33.824 217.141 33.356 217.261 32.852C217.477 31.94 217.789 30.908 218.197 29.756C218.629 28.604 219.121 27.476 219.673 26.372C220.249 25.244 220.873 24.2 221.545 23.24C222.241 22.256 222.961 21.488 223.705 20.936C223.897 20.936 224.137 20.96 224.425 21.008C224.713 21.032 225.013 21.092 225.325 21.188C225.637 21.284 225.937 21.404 226.225 21.548C226.513 21.668 226.765 21.836 226.981 22.052C226.717 22.292 226.141 23.096 225.253 24.464C224.365 25.832 223.381 27.8 222.301 30.368C222.181 30.632 222.037 31.016 221.869 31.52C221.701 32.024 221.533 32.552 221.365 33.104C221.221 33.656 221.089 34.196 220.969 34.724C220.849 35.252 220.789 35.672 220.789 35.984C220.789 36.176 220.813 36.32 220.861 36.416C220.933 36.512 220.993 36.584 221.041 36.632C221.473 36.56 222.049 36.212 222.769 35.588C223.489 34.94 224.305 33.944 225.217 32.6C225.793 31.736 226.321 30.884 226.801 30.044C227.281 29.18 227.749 28.316 228.205 27.452C228.685 26.588 229.177 25.7 229.681 24.788C230.185 23.876 230.725 22.94 231.301 21.98C231.613 21.98 231.949 22.016 232.309 22.088C232.669 22.16 233.017 22.256 233.353 22.376C233.689 22.472 233.977 22.592 234.217 22.736C234.481 22.856 234.673 22.988 234.793 23.132C234.049 24.716 233.353 26.264 232.705 27.776C232.057 29.288 231.481 30.836 230.977 32.42ZM248.098 35.948C248.698 36.98 248.998 37.976 248.998 38.936C248.998 39.152 248.974 39.344 248.926 39.512C248.902 39.704 248.866 39.896 248.818 40.088C248.41 40.04 247.978 40.004 247.522 39.98C247.09 39.956 246.634 39.944 246.154 39.944C245.578 39.944 244.99 39.956 244.39 39.98C243.814 40.028 243.166 40.088 242.446 40.16C241.726 40.232 240.922 40.328 240.034 40.448C239.146 40.568 238.114 40.724 236.938 40.916C236.386 40.724 235.834 40.34 235.282 39.764C234.73 39.212 234.214 38.54 233.734 37.748C233.974 37.22 234.274 36.572 234.634 35.804C234.994 35.012 235.414 34.064 235.894 32.96C236.374 31.832 236.902 30.524 237.478 29.036C238.078 27.524 238.714 25.784 239.386 23.816C239.818 22.52 240.19 21.38 240.502 20.396C240.814 19.412 241.09 18.464 241.33 17.552C241.594 16.616 241.846 15.644 242.086 14.636C242.326 13.628 242.59 12.464 242.878 11.144C243.838 11.336 244.666 11.696 245.362 12.224C246.082 12.728 246.766 13.46 247.414 14.42C247.222 14.732 246.97 15.236 246.658 15.932C246.346 16.628 245.974 17.48 245.542 18.488C245.134 19.472 244.678 20.6 244.174 21.872C243.67 23.12 243.142 24.464 242.59 25.904C242.062 27.32 241.546 28.652 241.042 29.9C240.538 31.148 240.082 32.276 239.674 33.284C239.29 34.292 238.978 35.156 238.738 35.876C238.498 36.596 238.378 37.136 238.378 37.496C238.762 37.472 239.11 37.448 239.422 37.424C239.734 37.4 240.058 37.364 240.394 37.316C240.73 37.244 241.09 37.172 241.474 37.1C241.882 37.004 242.362 36.884 242.914 36.74C243.394 36.62 243.838 36.524 244.246 36.452C244.654 36.356 245.05 36.284 245.434 36.236C245.842 36.164 246.25 36.116 246.658 36.092C247.09 36.044 247.57 35.996 248.098 35.948Z" fill="#F7CB35"/>
</g>
<defs>
<clipPath id="clip0_5_62">
<rect width="300" height="51" fill="white"/>
</clipPath>
</defs>
</svg>
